<?xml version="1.0" encoding="utf-8"?>
<svg xmlns="http://www.w3.org/2000/svg" width="29.955" height="29.955" viewBox="0 0 29.955 29.955">
  <g id="Instagram" transform="translate(-648.66 -753.71)">
    <path id="Tracé_732" data-name="Tracé 732" d="M663.638,756.405c3.989,0,4.467,0,6.044.088a8.127,8.127,0,0,1,2.777.515,4.969,4.969,0,0,1,2.833,2.833,8.126,8.126,0,0,1,.515,2.777c.075,1.577.088,2.054.088,6.044s0,4.467-.088,6.044a8.126,8.126,0,0,1-.515,2.777,4.97,4.97,0,0,1-2.833,2.833,8.127,8.127,0,0,1-2.777.515c-1.577.075-2.048.088-6.044.088s-4.467,0-6.044-.088a8.127,8.127,0,0,1-2.777-.515,4.97,4.97,0,0,1-2.833-2.833,8.127,8.127,0,0,1-.515-2.777c-.075-1.577-.088-2.054-.088-6.044s0-4.467.088-6.044a8.128,8.128,0,0,1,.515-2.777,4.969,4.969,0,0,1,2.833-2.833,8.127,8.127,0,0,1,2.777-.515c1.577-.075,2.054-.088,6.044-.088m0-2.7c-4.059,0-4.568,0-6.163.088a10.984,10.984,0,0,0-3.631.7,7.6,7.6,0,0,0-4.4,4.4,10.989,10.989,0,0,0-.7,3.631c-.069,1.6-.088,2.1-.088,6.163s0,4.567.088,6.163a10.986,10.986,0,0,0,.7,3.631,7.6,7.6,0,0,0,4.4,4.4,10.987,10.987,0,0,0,3.631.7c1.6.069,2.1.088,6.163.088s4.567,0,6.163-.088a10.988,10.988,0,0,0,3.631-.7,7.6,7.6,0,0,0,4.4-4.4,10.987,10.987,0,0,0,.7-3.631c.069-1.6.088-2.1.088-6.163s0-4.567-.088-6.163a10.99,10.99,0,0,0-.7-3.631,7.6,7.6,0,0,0-4.4-4.4,10.985,10.985,0,0,0-3.631-.7C668.205,753.729,667.7,753.71,663.638,753.71Z" transform="translate(0)" fill="#fff"/>
    <path id="Tracé_733" data-name="Tracé 733" d="M667.957,765.28a7.677,7.677,0,1,0,7.677,7.677h0A7.677,7.677,0,0,0,667.957,765.28Zm0,12.659a4.982,4.982,0,1,1,4.982-4.982h0a4.982,4.982,0,0,1-4.982,4.982Z" transform="translate(-4.32 -4.301)" fill="#fff"/>
    <circle id="Ellipse_68" data-name="Ellipse 68" cx="1.797" cy="1.797" r="1.797" transform="translate(669.82 758.881)" fill="#fff"/>
  </g>
</svg>
