<?xml version="1.0" encoding="utf-8" ?><svg xmlns="http://www.w3.org/2000/svg" width="31" height="31" viewBox="0 0 31 31"><g transform="translate(0.5 0.5)"><path d="M16.024,30H1.656A1.657,1.657,0,0,1,0,28.344V1.655A1.657,1.657,0,0,1,1.656,0H28.344A1.657,1.657,0,0,1,30,1.655V28.344A1.657,1.657,0,0,1,28.344,30H20.7V18.382h3.9l.584-4.527H20.7V10.964c0-1.323.382-2.2,2.245-2.2h2.4V4.709a32.294,32.294,0,0,0-3.493-.179c-3.592,0-5.824,2.293-5.824,5.985v3.34H12.115v4.527h3.909V30Z" transform="translate(0 0)" fill="#fff" stroke="rgba(0,0,0,0)" stroke-miterlimit="10" stroke-width="1"/></g></svg>