<?xml version="1.0" encoding="utf-8" ?><svg xmlns="http://www.w3.org/2000/svg" width="29.917" height="29.841" viewBox="0 0 29.917 29.841"><g transform="translate(-753.53 -438.59)"><path d="M754.02,448.5h6.2v19.936h-6.2Zm3.1-9.905a3.593,3.593,0,1,1-3.593,3.593h0a3.593,3.593,0,0,1,3.593-3.593" fill="#fff"/><path d="M770.37,454.067h5.936v2.726h.113a6.507,6.507,0,0,1,5.86-3.216c6.281,0,7.43,4.127,7.43,9.491V474h-6.193v-9.692c0-2.311-.038-5.289-3.216-5.289s-3.718,2.512-3.718,5.119V474H770.4Z" transform="translate(-6.263 -5.572)" fill="#fff"/></g></svg>